<svg xmlns="http://www.w3.org/2000/svg" xmlns:xlink="http://www.w3.org/1999/xlink" width="720" zoomAndPan="magnify" viewBox="0 0 540 119.999999" height="160" preserveAspectRatio="xMidYMid meet" version="1.0"><defs><g/><clipPath id="c946479a75"><path d="M 108 11.402344 L 158 11.402344 L 158 27 L 108 27 Z M 108 11.402344 " clip-rule="nonzero"/></clipPath><clipPath id="892190c6a6"><path d="M 47.824219 26 L 124 26 L 124 108.902344 L 47.824219 108.902344 Z M 47.824219 26 " clip-rule="nonzero"/></clipPath><clipPath id="5ff13e2e2e"><path d="M 0.878906 0.921875 L 229.121094 0.921875 L 229.121094 69 L 0.878906 69 Z M 0.878906 0.921875 " clip-rule="nonzero"/></clipPath><clipPath id="ff5222e8a4"><rect x="0" width="230" y="0" height="69"/></clipPath><clipPath id="c70d0292af"><path d="M 56 63 L 160 63 L 160 90.921875 L 56 90.921875 Z M 56 63 " clip-rule="nonzero"/></clipPath><clipPath id="bde774e9f7"><rect x="0" width="104" y="0" height="28"/></clipPath><clipPath id="a4636d0366"><rect x="0" width="230" y="0" height="91"/></clipPath></defs><path fill="#8ec254" d="M 156.765625 26.820312 L 170.921875 28.742188 L 164.730469 74.179688 L 164.730469 74.21875 L 162.503906 90.589844 L 160.902344 102.382812 L 123.054688 97.238281 L 123.035156 97.238281 L 58.945312 88.511719 L 67.289062 27.125 L 67.308594 27.125 L 68.972656 14.871094 L 76.167969 15.859375 L 76.167969 67.320312 L 91.242188 57.734375 L 100.851562 64.035156 L 122.769531 37.988281 L 128.253906 39.78125 L 140.449219 56.226562 L 140.449219 24.585938 L 156.765625 26.820312 " fill-opacity="1" fill-rule="nonzero"/><path fill="#8ec254" d="M 154.347656 12.488281 L 156.765625 26.820312 L 140.449219 24.585938 L 108.378906 20.226562 L 154.347656 12.488281 " fill-opacity="1" fill-rule="nonzero"/><path fill="#4b7aba" d="M 92.308594 28.402344 C 92.308594 25.5625 90.027344 23.277344 87.203125 23.277344 C 84.386719 23.277344 82.078125 25.5625 82.078125 28.402344 C 82.078125 31.226562 84.386719 33.507812 87.203125 33.507812 C 90.027344 33.507812 92.308594 31.226562 92.308594 28.402344 Z M 108.378906 20.226562 L 140.449219 24.585938 L 140.449219 56.226562 L 128.253906 39.78125 L 122.769531 37.988281 L 100.851562 64.035156 L 91.242188 57.734375 L 76.167969 67.320312 L 76.167969 15.859375 L 108.378906 20.226562 " fill-opacity="1" fill-rule="nonzero"/><path fill="#8ec254" d="M 123.035156 97.238281 L 61.953125 107.507812 L 48.957031 30.234375 L 67.289062 27.125 L 58.945312 88.511719 L 123.035156 97.238281 " fill-opacity="1" fill-rule="nonzero"/><path fill="#8ec254" d="M 87.203125 23.277344 C 90.027344 23.277344 92.308594 25.5625 92.308594 28.402344 C 92.308594 31.226562 90.027344 33.507812 87.203125 33.507812 C 84.386719 33.507812 82.078125 31.226562 82.078125 28.402344 C 82.078125 25.5625 84.386719 23.277344 87.203125 23.277344 " fill-opacity="1" fill-rule="nonzero"/><path fill="#100f0d" d="M 161.71875 103.457031 L 122.925781 98.183594 L 123.179688 96.296875 L 160.085938 101.316406 L 163.789062 74.085938 L 165.675781 74.339844 L 161.71875 103.457031 " fill-opacity="1" fill-rule="nonzero"/><path fill="#100f0d" d="M 165.675781 74.304688 L 163.789062 74.050781 L 169.855469 29.554688 L 69.785156 15.945312 L 68.25 27.253906 L 66.367188 26.996094 L 68.152344 13.792969 L 171.996094 27.925781 L 165.675781 74.304688 " fill-opacity="1" fill-rule="nonzero"/><path fill="#100f0d" d="M 122.90625 98.183594 L 57.871094 89.324219 L 66.347656 26.996094 L 68.234375 27.253906 L 60.011719 87.699219 L 123.160156 96.296875 L 122.90625 98.183594 " fill-opacity="1" fill-rule="nonzero"/><g clip-path="url(#c946479a75)"><path fill="#100f0d" d="M 155.816406 26.839844 L 153.566406 13.589844 L 108.394531 21.210938 L 108.320312 21.199219 L 108.308594 20.214844 L 108.03125 19.339844 L 108.222656 19.28125 L 155.128906 11.390625 L 157.710938 26.660156 L 155.816406 26.839844 " fill-opacity="1" fill-rule="nonzero"/></g><g clip-path="url(#892190c6a6)"><path fill="#100f0d" d="M 61.171875 108.605469 L 47.859375 29.449219 L 67.128906 26.1875 L 67.308594 28.078125 L 67.289062 28.078125 L 50.054688 31.007812 L 62.734375 106.410156 L 122.875 96.296875 L 123.054688 98.1875 L 61.171875 108.605469 " fill-opacity="1" fill-rule="nonzero"/></g><path fill="#100f0d" d="M 162.660156 91.527344 L 162.351562 89.644531 L 166.265625 89 L 163.777344 74.171875 L 165.6875 74.171875 L 168.460938 90.570312 L 162.660156 91.527344 " fill-opacity="1" fill-rule="nonzero"/><path fill="#100f0d" d="M 75.21875 69.054688 L 75.21875 15.859375 L 77.121094 15.859375 L 77.121094 65.582031 L 91.253906 56.59375 L 100.664062 62.777344 L 122.453125 36.882812 L 128.835938 38.96875 L 139.5 53.339844 L 139.5 24.613281 L 141.40625 24.613281 L 141.40625 59.109375 L 127.671875 40.59375 L 123.078125 39.089844 L 101.039062 65.300781 L 91.234375 58.863281 L 75.21875 69.054688 " fill-opacity="1" fill-rule="nonzero"/><path fill="#100f0d" d="M 87.203125 24.226562 C 84.902344 24.226562 83.035156 26.101562 83.035156 28.402344 C 83.035156 30.691406 84.902344 32.554688 87.203125 32.554688 C 89.5 32.554688 91.359375 30.691406 91.359375 28.402344 C 91.359375 26.101562 89.5 24.226562 87.203125 24.226562 Z M 87.203125 34.457031 C 83.855469 34.457031 81.125 31.738281 81.125 28.402344 C 81.125 25.046875 83.855469 22.324219 87.203125 22.324219 C 90.546875 22.324219 93.265625 25.046875 93.265625 28.402344 C 93.265625 31.738281 90.546875 34.457031 87.203125 34.457031 " fill-opacity="1" fill-rule="nonzero"/><g transform="matrix(1, 0, 0, 1, 194, 13)"><g clip-path="url(#a4636d0366)"><g clip-path="url(#5ff13e2e2e)"><g transform="matrix(1, 0, 0, 1, 0, 0.000000000000003553)"><g clip-path="url(#ff5222e8a4)"><g fill="#000000" fill-opacity="1"><g transform="translate(1.288897, 54.011945)"><g><path d="M 4.515625 0 L 4.515625 -38.1875 L 11.40625 -38.1875 L 11.40625 0 Z M 4.515625 0 "/></g></g></g><g fill="#000000" fill-opacity="1"><g transform="translate(27.394548, 54.011945)"><g><path d="M 4.515625 0 L 4.515625 -38.1875 L 13.5625 -38.1875 L 23.796875 -15.265625 L 24.71875 -12.75 L 24.765625 -12.75 L 25.703125 -15.265625 L 35.921875 -38.1875 L 44.921875 -38.1875 L 44.921875 0 L 38.1875 0 L 38.1875 -25.640625 L 38.28125 -29.03125 L 38.234375 -29.03125 L 37.15625 -26.359375 L 27.640625 -5.5 L 21.796875 -5.5 L 12.28125 -26.359375 L 11.25 -29.03125 L 11.203125 -29.03125 L 11.25 -25.640625 L 11.25 0 Z M 4.515625 0 "/></g></g></g><g fill="#000000" fill-opacity="1"><g transform="translate(87.003148, 54.011945)"><g><path d="M 0.5625 0 L 14.640625 -38.1875 L 23.640625 -38.1875 L 37.765625 0 L 30.375 0 L 27.34375 -8.84375 L 11 -8.84375 L 7.96875 0 Z M 12.84375 -14.234375 L 25.484375 -14.234375 L 20.140625 -29.90625 L 19.21875 -32.84375 L 19.125 -32.84375 L 18.1875 -29.90625 Z M 12.84375 -14.234375 "/></g></g></g><g fill="#000000" fill-opacity="1"><g transform="translate(135.461234, 54.011945)"><g><path d="M 19.9375 0.765625 C 14.25 0.765625 9.90625 -0.875 6.90625 -4.15625 C 3.914062 -7.445312 2.421875 -12.28125 2.421875 -18.65625 L 2.421875 -19.421875 C 2.421875 -25.828125 3.914062 -30.675781 6.90625 -33.96875 C 9.90625 -37.257812 14.25 -38.90625 19.9375 -38.90625 C 23.53125 -38.90625 26.550781 -38.28125 29 -37.03125 C 31.457031 -35.78125 33.335938 -34.109375 34.640625 -32.015625 C 35.941406 -29.921875 36.609375 -27.59375 36.640625 -25.03125 L 36.640625 -24.828125 L 29.8125 -24.828125 L 29.8125 -24.96875 C 29.769531 -26.414062 29.363281 -27.742188 28.59375 -28.953125 C 27.820312 -30.171875 26.707031 -31.148438 25.25 -31.890625 C 23.800781 -32.628906 22.015625 -33 19.890625 -33 C 16.492188 -33 13.894531 -31.882812 12.09375 -29.65625 C 10.300781 -27.425781 9.40625 -24.132812 9.40625 -19.78125 L 9.40625 -18.34375 C 9.40625 -13.988281 10.300781 -10.695312 12.09375 -8.46875 C 13.894531 -6.25 16.492188 -5.140625 19.890625 -5.140625 C 22.734375 -5.140625 25.0625 -5.875 26.875 -7.34375 C 28.6875 -8.820312 29.695312 -11.015625 29.90625 -13.921875 L 29.90625 -14.125 L 19.171875 -14.125 L 19.171875 -19.890625 L 36.6875 -19.890625 L 36.6875 -17.171875 C 36.6875 -11.515625 35.300781 -7.109375 32.53125 -3.953125 C 29.757812 -0.804688 25.5625 0.765625 19.9375 0.765625 Z M 19.9375 0.765625 "/></g></g></g><g fill="#000000" fill-opacity="1"><g transform="translate(184.638704, 54.011945)"><g><path d="M 4.515625 0 L 4.515625 -38.1875 L 31.546875 -38.1875 L 31.546875 -32.421875 L 11.40625 -32.421875 L 11.40625 -22.203125 L 29.546875 -22.203125 L 29.546875 -16.8125 L 11.40625 -16.8125 L 11.40625 -5.75 L 31.8125 -5.75 L 31.8125 0 Z M 4.515625 0 "/></g></g></g></g></g></g><g clip-path="url(#c70d0292af)"><g transform="matrix(1, 0, 0, 1, 56, 63)"><g clip-path="url(#bde774e9f7)"><g fill="#000000" fill-opacity="1"><g transform="translate(1.983456, 22.363874)"><g><path d="M 6.703125 0.28125 C 2.921875 0.28125 1.03125 -2.03125 1.03125 -6.65625 L 1.03125 -8.546875 C 1.03125 -10.898438 1.492188 -12.648438 2.421875 -13.796875 C 3.359375 -14.953125 4.785156 -15.53125 6.703125 -15.53125 C 8.003906 -15.53125 9.046875 -15.285156 9.828125 -14.796875 C 10.617188 -14.316406 11.195312 -13.664062 11.5625 -12.84375 C 11.925781 -12.03125 12.109375 -11.140625 12.109375 -10.171875 L 12.109375 -10.109375 L 9.78125 -10.109375 L 9.78125 -10.171875 C 9.78125 -10.773438 9.679688 -11.328125 9.484375 -11.828125 C 9.285156 -12.328125 8.957031 -12.726562 8.5 -13.03125 C 8.050781 -13.332031 7.441406 -13.484375 6.671875 -13.484375 C 5.617188 -13.484375 4.804688 -13.097656 4.234375 -12.328125 C 3.660156 -11.554688 3.375 -10.359375 3.375 -8.734375 L 3.375 -6.5 C 3.375 -4.832031 3.660156 -3.625 4.234375 -2.875 C 4.804688 -2.132812 5.617188 -1.765625 6.671875 -1.765625 C 7.691406 -1.765625 8.476562 -2.050781 9.03125 -2.625 C 9.582031 -3.207031 9.878906 -4.179688 9.921875 -5.546875 L 9.921875 -5.875 L 6.640625 -5.875 L 6.640625 -7.890625 L 12.140625 -7.890625 L 12.140625 -6.25 C 12.140625 -4.957031 11.96875 -3.816406 11.625 -2.828125 C 11.28125 -1.847656 10.710938 -1.082031 9.921875 -0.53125 C 9.128906 0.0078125 8.054688 0.28125 6.703125 0.28125 Z M 6.703125 0.28125 "/></g></g></g><g fill="#000000" fill-opacity="1"><g transform="translate(19.1837, 22.363874)"><g><path d="M 0.25 0 L 5.015625 -15.265625 L 8.046875 -15.265625 L 12.828125 0 L 10.375 0 L 9.3125 -3.609375 L 3.765625 -3.609375 L 2.6875 0 Z M 4.3125 -5.5625 L 8.75 -5.5625 L 6.828125 -12.125 L 6.546875 -13.1875 L 6.515625 -13.1875 L 6.25 -12.125 Z M 4.3125 -5.5625 "/></g></g></g><g fill="#000000" fill-opacity="1"><g transform="translate(36.383943, 22.363874)"><g><path d="M 1.703125 0 L 1.703125 -15.265625 L 6.984375 -15.265625 C 10.210938 -15.265625 11.828125 -13.8125 11.828125 -10.90625 L 11.828125 -10.890625 C 11.828125 -9.816406 11.582031 -8.953125 11.09375 -8.296875 C 10.613281 -7.648438 9.960938 -7.234375 9.140625 -7.046875 L 9.140625 -7.03125 C 9.859375 -6.875 10.394531 -6.503906 10.75 -5.921875 C 11.113281 -5.335938 11.34375 -4.644531 11.4375 -3.84375 L 11.671875 -2.203125 C 11.816406 -1.203125 12.007812 -0.46875 12.25 0 L 9.859375 0 C 9.710938 -0.4375 9.535156 -1.242188 9.328125 -2.421875 L 9.0625 -4.03125 C 8.96875 -4.632812 8.71875 -5.097656 8.3125 -5.421875 C 7.90625 -5.753906 7.269531 -5.921875 6.40625 -5.921875 L 4.046875 -5.921875 L 4.046875 0 Z M 4.046875 -7.953125 L 6.703125 -7.953125 C 7.546875 -7.953125 8.222656 -8.160156 8.734375 -8.578125 C 9.242188 -9.003906 9.5 -9.726562 9.5 -10.75 L 9.5 -10.828125 C 9.5 -11.597656 9.285156 -12.191406 8.859375 -12.609375 C 8.429688 -13.035156 7.78125 -13.25 6.90625 -13.25 L 4.046875 -13.25 Z M 4.046875 -7.953125 "/></g></g></g><g fill="#000000" fill-opacity="1"><g transform="translate(53.29653, 22.363874)"><g><path d="M 0.25 0 L 5.015625 -15.265625 L 8.046875 -15.265625 L 12.828125 0 L 10.375 0 L 9.3125 -3.609375 L 3.765625 -3.609375 L 2.6875 0 Z M 4.3125 -5.5625 L 8.75 -5.5625 L 6.828125 -12.125 L 6.546875 -13.1875 L 6.515625 -13.1875 L 6.25 -12.125 Z M 4.3125 -5.5625 "/></g></g></g><g fill="#000000" fill-opacity="1"><g transform="translate(70.496774, 22.363874)"><g><path d="M 6.703125 0.28125 C 2.921875 0.28125 1.03125 -2.03125 1.03125 -6.65625 L 1.03125 -8.546875 C 1.03125 -10.898438 1.492188 -12.648438 2.421875 -13.796875 C 3.359375 -14.953125 4.785156 -15.53125 6.703125 -15.53125 C 8.003906 -15.53125 9.046875 -15.285156 9.828125 -14.796875 C 10.617188 -14.316406 11.195312 -13.664062 11.5625 -12.84375 C 11.925781 -12.03125 12.109375 -11.140625 12.109375 -10.171875 L 12.109375 -10.109375 L 9.78125 -10.109375 L 9.78125 -10.171875 C 9.78125 -10.773438 9.679688 -11.328125 9.484375 -11.828125 C 9.285156 -12.328125 8.957031 -12.726562 8.5 -13.03125 C 8.050781 -13.332031 7.441406 -13.484375 6.671875 -13.484375 C 5.617188 -13.484375 4.804688 -13.097656 4.234375 -12.328125 C 3.660156 -11.554688 3.375 -10.359375 3.375 -8.734375 L 3.375 -6.5 C 3.375 -4.832031 3.660156 -3.625 4.234375 -2.875 C 4.804688 -2.132812 5.617188 -1.765625 6.671875 -1.765625 C 7.691406 -1.765625 8.476562 -2.050781 9.03125 -2.625 C 9.582031 -3.207031 9.878906 -4.179688 9.921875 -5.546875 L 9.921875 -5.875 L 6.640625 -5.875 L 6.640625 -7.890625 L 12.140625 -7.890625 L 12.140625 -6.25 C 12.140625 -4.957031 11.96875 -3.816406 11.625 -2.828125 C 11.28125 -1.847656 10.710938 -1.082031 9.921875 -0.53125 C 9.128906 0.0078125 8.054688 0.28125 6.703125 0.28125 Z M 6.703125 0.28125 "/></g></g></g><g fill="#000000" fill-opacity="1"><g transform="translate(87.697018, 22.363874)"><g><path d="M 1.703125 0 L 1.703125 -15.265625 L 10.609375 -15.265625 L 10.609375 -13.25 L 4.046875 -13.25 L 4.046875 -8.78125 L 9.859375 -8.78125 L 9.859375 -6.828125 L 4.046875 -6.828125 L 4.046875 -2.015625 L 10.6875 -2.015625 L 10.6875 0 Z M 1.703125 0 "/></g></g></g></g></g></g></g></g></svg>